<svg width="512" height="512" viewBox="0 0 512 512" fill="none" xmlns="http://www.w3.org/2000/svg">
<g clip-path="url(#clip0_1709_395)">
<mask id="mask0_1709_395" style="mask-type:alpha" maskUnits="userSpaceOnUse" x="0" y="0" width="512" height="512">
<circle cx="256" cy="256" r="256" fill="#D9D9D9"/>
</mask>
<g mask="url(#mask0_1709_395)">
<circle cx="256" cy="256" r="256" fill="#B1DAD7"/>
<path d="M532.67 157.983C520.767 231.167 403.055 406.631 288.871 406.631C162.783 406.631 35.149 218.881 28.3192 157.983C7.15765 -30.708 133.964 -159 280.054 -159C426.144 -159 567.448 -55.8373 532.67 157.983Z" fill="#DCD52B"/>
<path d="M381.012 243.07C349.27 270.845 340.893 295.092 283.14 295.092C225.386 295.092 234.204 279.221 188.794 249.611C202.02 243.07 261.437 251.887 285.785 251.887C310.133 251.887 339.571 249.611 381.012 243.07Z" fill="#A40000"/>
<path d="M379.69 242.629C321.936 250.017 312.237 249.242 289.753 249.242C260.215 249.242 221.419 242.629 188.354 250.017C206.87 224.554 260.215 206.478 286.667 219.263C310.915 206.478 358.969 224.113 379.69 242.629Z" fill="#EC0303"/>
<g filter="url(#filter0_dd_1709_395)">
<path fill-rule="evenodd" clip-rule="evenodd" d="M333.839 320.662C329.836 393.865 362.458 443.485 378.881 468.467L378.882 468.468C382.102 473.366 384.699 477.316 386.276 480.312C390.036 485.205 391.631 494.36 393.732 506.419C396.146 520.269 399.227 537.951 407.023 557.408C411.907 592.635 426.266 635.19 439.707 675.024C453.853 716.946 466.982 755.856 466.982 780.045C466.982 783.585 475.629 798.288 486.848 817.367L486.849 817.368C507.574 852.61 537.078 902.78 537.078 925.09H347.065C308.894 890.694 290.278 850.312 282.865 816.853C264 801.379 245.138 773.664 227.15 730.668C224.719 727.324 217.353 718.28 207.357 706.006C172.756 663.523 106.641 582.347 104.589 564.902C102.786 562.925 101.07 561.045 99.4358 559.255C76.2999 533.913 69.6361 526.614 65.7927 515.084C53.889 479.374 85.1905 459.094 109.438 469.234C127.404 476.747 207.814 590.94 248.27 659.506C238.917 610.082 231.855 558.405 234.203 520.816C235.54 499.42 247.939 458.662 261.137 450.121C261.176 449.95 261.216 449.775 261.257 449.593C263.662 439.007 270.543 408.725 247.43 320.662C247.43 223.269 247.43 105.52 291.516 105.52C303.597 105.52 306.294 138.512 309.823 181.665C313.406 225.488 317.846 279.791 333.839 320.662Z" fill="#FCF209"/>
</g>
<g filter="url(#filter1_d_1709_395)">
<path fill-rule="evenodd" clip-rule="evenodd" d="M344.977 535.665C383.807 544.441 397.178 547.463 380.13 506.708C380.13 482.36 323.699 464.826 244.343 446.75C190.373 427.267 161.088 421.207 143.948 424.005C140.119 424.237 136.677 425.441 133.584 427.458C124.781 432.397 120.857 441.477 116.933 452.922C116.645 453.763 116.415 454.662 116.243 455.615C105.545 490.136 106.357 543.539 106.706 566.554C106.754 569.699 106.793 572.276 106.793 574.16C106.793 598.509 128.244 658.353 137.654 661.452C173.805 673.355 173.805 567.648 173.805 543.3C173.805 540.97 173.838 538.003 173.877 534.544C173.918 530.883 173.965 526.67 173.986 522.074C191.017 526.688 212.02 527.446 237.29 521.697C283.18 521.697 319.541 529.916 344.977 535.665Z" fill="#FCF209"/>
</g>
</g>
</g>
<defs>
<filter id="filter0_dd_1709_395" x="47.1826" y="89.5197" width="505.896" height="851.57" filterUnits="userSpaceOnUse" color-interpolation-filters="sRGB">
<feFlood flood-opacity="0" result="BackgroundImageFix"/>
<feColorMatrix in="SourceAlpha" type="matrix" values="0 0 0 0 0 0 0 0 0 0 0 0 0 0 0 0 0 0 127 0" result="hardAlpha"/>
<feOffset dx="-8" dy="-8"/>
<feGaussianBlur stdDeviation="4"/>
<feComposite in2="hardAlpha" operator="out"/>
<feColorMatrix type="matrix" values="0 0 0 0 0 0 0 0 0 0 0 0 0 0 0 0 0 0 0.25 0"/>
<feBlend mode="normal" in2="BackgroundImageFix" result="effect1_dropShadow_1709_395"/>
<feColorMatrix in="SourceAlpha" type="matrix" values="0 0 0 0 0 0 0 0 0 0 0 0 0 0 0 0 0 0 127 0" result="hardAlpha"/>
<feOffset dx="8" dy="8"/>
<feGaussianBlur stdDeviation="4"/>
<feComposite in2="hardAlpha" operator="out"/>
<feColorMatrix type="matrix" values="0 0 0 0 0 0 0 0 0 0 0 0 0 0 0 0 0 0 0.25 0"/>
<feBlend mode="normal" in2="effect1_dropShadow_1709_395" result="effect2_dropShadow_1709_395"/>
<feBlend mode="normal" in="SourceGraphic" in2="effect2_dropShadow_1709_395" result="shape"/>
</filter>
<filter id="filter1_d_1709_395" x="106.536" y="423.359" width="296.874" height="255.024" filterUnits="userSpaceOnUse" color-interpolation-filters="sRGB">
<feFlood flood-opacity="0" result="BackgroundImageFix"/>
<feColorMatrix in="SourceAlpha" type="matrix" values="0 0 0 0 0 0 0 0 0 0 0 0 0 0 0 0 0 0 127 0" result="hardAlpha"/>
<feOffset dx="8" dy="8"/>
<feGaussianBlur stdDeviation="4"/>
<feComposite in2="hardAlpha" operator="out"/>
<feColorMatrix type="matrix" values="0 0 0 0 0 0 0 0 0 0 0 0 0 0 0 0 0 0 0.25 0"/>
<feBlend mode="normal" in2="BackgroundImageFix" result="effect1_dropShadow_1709_395"/>
<feBlend mode="normal" in="SourceGraphic" in2="effect1_dropShadow_1709_395" result="shape"/>
</filter>
<clipPath id="clip0_1709_395">
<rect width="512" height="512" fill="white"/>
</clipPath>
</defs>
</svg>
